<?xml version="1.0" encoding="utf-8"?>
<!-- Generator: Adobe Illustrator 25.0.0, SVG Export Plug-In . SVG Version: 6.00 Build 0)  -->
<svg version="1.1" xmlns="http://www.w3.org/2000/svg" xmlns:xlink="http://www.w3.org/1999/xlink" x="0px" y="0px"
	 viewBox="0 0 283.46 141.73" style="enable-background:new 0 0 283.46 141.73;" xml:space="preserve">
<style type="text/css">
	.st0{fill:#F79F0F;}
	.st1{clip-path:url(#SVGID_2_);fill:#F2DCB7;}
	.st2{clip-path:url(#SVGID_2_);fill:#F79F0F;}
	.st3{fill:none;stroke:#F79F0F;stroke-miterlimit:10;}
	.st4{fill:#FFFFFF;}
</style>
<g id="Calque_1">
	<g>
		<defs>
			<rect id="SVGID_1_" x="-260.94" y="-6.84" width="240.94" height="155.66"/>
		</defs>
		<clipPath id="SVGID_2_">
			<use xlink:href="#SVGID_1_"  style="overflow:visible;"/>
		</clipPath>
		<path class="st2" d="M-262.96,23.84c0,0,169.3-92.04,254.19-28.19s-7.51,86.15-7.51,86.15S-87.94,17.61-154.17,7.59
			s-135.4,34.79-135.4,34.79L-262.96,23.84z"/>
		<path class="st1" d="M-15.16,67.57c0,0-88.6-85.42-200.83-60.82c0,0,113.54-32.91,207.62,38.07c96.28,72.64,1.7,6.48,1.7,6.48
			L-15.16,67.57z"/>
	</g>
	<g>
		<g>
			<g>
				<path class="st0" d="M99.41,74.2v-6.66c0-0.39-0.29-0.72-0.67-0.77l-10.09-1.32c-0.33-0.04-0.59-0.3-0.65-0.62
					c-0.33-1.85-0.81-3.65-1.44-5.38c-0.11-0.31-0.03-0.65,0.24-0.85c1.49-1.14,6.44-4.93,8.09-6.19c0.31-0.24,0.39-0.66,0.2-1
					l-3.33-5.77c-0.19-0.34-0.61-0.48-0.97-0.33l-9.36,3.89c-0.31,0.13-0.65,0.04-0.87-0.21c-1.21-1.42-2.53-2.75-3.95-3.95
					c-0.25-0.21-0.35-0.55-0.22-0.86c0.72-1.73,3.1-7.47,3.9-9.38c0.15-0.36,0.01-0.77-0.33-0.97l-5.77-3.33
					c-0.34-0.19-0.77-0.11-1,0.2l-6.18,8.07c-0.2,0.26-0.55,0.36-0.86,0.25c-1.73-0.62-3.53-1.1-5.38-1.44
					c-0.33-0.06-0.58-0.3-0.62-0.63c-0.24-1.86-1.05-8.05-1.32-10.1c-0.05-0.39-0.38-0.67-0.77-0.67h-6.66
					c-0.39,0-0.72,0.29-0.77,0.67l-1.32,10.09c-0.04,0.33-0.3,0.59-0.62,0.65c-1.85,0.33-3.65,0.81-5.38,1.44
					c-0.31,0.11-0.65,0.03-0.85-0.24c-1.14-1.49-4.93-6.44-6.19-8.09c-0.24-0.31-0.66-0.39-1-0.2l-5.77,3.33
					c-0.34,0.19-0.48,0.61-0.33,0.97l3.89,9.36c0.13,0.31,0.04,0.65-0.21,0.87c-1.42,1.21-2.75,2.53-3.95,3.95
					c-0.21,0.25-0.55,0.35-0.86,0.22c-1.73-0.72-7.47-3.1-9.38-3.9c-0.36-0.15-0.77-0.01-0.97,0.33l-3.33,5.77
					c-0.19,0.34-0.11,0.77,0.2,1l8.07,6.18c0.26,0.2,0.36,0.55,0.25,0.86c-0.62,1.73-1.1,3.53-1.44,5.38
					c-0.06,0.33-0.3,0.58-0.63,0.62c-1.86,0.24-8.05,1.05-10.1,1.32c-0.39,0.05-0.67,0.38-0.67,0.77v6.66
					c0,0.39,0.29,0.72,0.67,0.77l10.09,1.32c0.33,0.04,0.59,0.3,0.65,0.62c0.33,1.85,0.81,3.65,1.44,5.38
					c0.11,0.31,0.03,0.65-0.24,0.85c-1.49,1.14-6.44,4.93-8.09,6.19c-0.31,0.24-0.39,0.66-0.2,1l3.33,5.77
					c0.19,0.34,0.61,0.48,0.97,0.33l9.36-3.89c0.31-0.13,0.65-0.04,0.87,0.21c1.21,1.42,2.53,2.75,3.95,3.95
					c0.25,0.21,0.35,0.55,0.22,0.86c-0.72,1.73-3.1,7.47-3.9,9.38c-0.15,0.36-0.01,0.77,0.33,0.97l5.77,3.33
					c0.34,0.19,0.77,0.11,1-0.2l6.18-8.07c0.2-0.26,0.55-0.36,0.86-0.25c1.73,0.62,3.53,1.1,5.38,1.44c0.33,0.06,0.58,0.3,0.62,0.63
					c0.24,1.86,1.05,8.05,1.32,10.1c0.05,0.39,0.38,0.67,0.77,0.67h6.66c0.39,0,0.72-0.29,0.77-0.67l1.32-10.09
					c0.04-0.33,0.3-0.59,0.62-0.65c1.85-0.33,3.65-0.81,5.38-1.44c0.31-0.11,0.65-0.03,0.85,0.24c1.14,1.49,4.93,6.44,6.19,8.09
					c0.24,0.31,0.66,0.39,1,0.2l5.77-3.33c0.34-0.19,0.48-0.61,0.33-0.97l-3.89-9.36c-0.13-0.31-0.04-0.65,0.21-0.87
					c1.42-1.21,2.75-2.53,3.95-3.95c0.21-0.25,0.55-0.35,0.86-0.22c1.73,0.72,7.47,3.1,9.38,3.9c0.36,0.15,0.77,0.01,0.97-0.33
					l3.33-5.77c0.19-0.34,0.11-0.77-0.2-1l-8.07-6.18c-0.26-0.2-0.36-0.55-0.25-0.86c0.62-1.73,1.1-3.53,1.44-5.38
					c0.06-0.33,0.3-0.58,0.63-0.62c1.86-0.24,8.05-1.05,10.1-1.32C99.13,74.91,99.41,74.58,99.41,74.2z M62.7,96.64
					c-22.1,6.44-42.66-16.31-31.91-38.48c2.37-4.88,6.36-8.87,11.23-11.24c22.17-10.77,44.93,9.8,38.49,31.9
					C78.02,87.41,71.29,94.14,62.7,96.64z"/>
			</g>
			<g>
				<path d="M78.3,69.65C77.7,58.5,68.93,48.97,57.9,47.5c-11.53-1.54-22.65,5.73-25.86,16.93c-1.75,6.1-0.91,12.54,2.35,18.15
					c3.29,5.65,8.78,9.77,15.04,11.28c0.35,0.09,0.63,0.01,0.85-0.23c0.26-0.27,0.37-0.69,0.27-1.02c-0.08-0.26-0.28-0.44-0.59-0.51
					c-10.52-2.55-17.64-12.14-16.92-22.81c0.72-10.69,9.66-19.54,20.36-20.14c10.12-0.57,19.44,6.01,22.23,15.63
					c2.89,9.98-1.74,20.69-11.01,25.47c-0.95,0.49-5.81,2.88-7.93,1.94c-0.52-0.23-0.87-0.63-1.01-1.17
					c-0.18-0.69-0.12-1.5-0.07-2.23c0.02-0.31,0.05-0.62,0.05-0.89v-8.97c0-0.84-0.83-0.87-0.92-0.87c-0.09,0-0.92,0.03-0.92,0.87
					v9.72c0,0.24-0.01,0.49-0.01,0.74c-0.02,1-0.05,2.04,0.32,2.87c0.81,1.82,2.46,2.32,5.55,1.68
					C70.73,91.63,78.92,80.97,78.3,69.65z"/>
				<path d="M50.06,54.72c-0.84,0-1.52,0.68-1.52,1.52v7.71c0,0.84,0.68,1.52,1.52,1.52c0.84,0,1.52-0.68,1.52-1.52v-7.71
					C51.57,55.4,50.89,54.72,50.06,54.72z"/>
				<path d="M59.43,65.46c0.84,0,1.52-0.68,1.52-1.52v-7.71c0-0.84-0.68-1.52-1.52-1.52c-0.84,0-1.52,0.68-1.52,1.52v7.71
					C57.91,64.78,58.59,65.46,59.43,65.46z"/>
			</g>
			<path class="st0" d="M64.57,61.9h-9.84H44.9c-0.71,0-1.3,0.59-1.3,1.32v1.86c0,0.59,0.49,1.1,1.1,1.1c1.37,0,2.5,1.1,2.5,2.48
				v4.39c0,3.85,3.12,6.97,6.97,6.97h0.56h0.56c3.85,0,6.97-3.11,6.97-6.97v-4.39c0-1.37,1.13-2.48,2.5-2.48
				c0.61,0,1.1-0.51,1.1-1.1v-1.86C65.87,62.49,65.28,61.9,64.57,61.9z"/>
		</g>
		<rect x="113.45" y="73.53" class="st0" width="159.94" height="19.79"/>
		<g>
			<path d="M121.51,58.79v6.77h-4.92V48.78h4.97l4.44,6.77c0.53,0.79,1,1.5,1.53,2.53h0.09v-2.83v-6.48h4.89v16.78h-5l-4.56-7.06
				l-1.32-2h-0.09C121.51,57.64,121.51,58.2,121.51,58.79z"/>
			<path d="M135.14,62.85c0-1.56,1.21-2.8,2.85-2.8c1.59,0,2.77,1.24,2.77,2.8c0,1.8-1.12,2.94-2.85,2.94
				C136.34,65.79,135.14,64.67,135.14,62.85z"/>
			<path d="M159.06,65.56h-5.8L150,59.29c-0.38-0.71-0.74-1.41-1.27-2.12v8.39h-5.3V48.78h5.3v7.62c0.56-0.65,0.91-1.32,1.3-2
				l3.15-5.62h5.59l-3.36,5.62c-0.47,0.77-0.91,1.56-1.74,2.33c0.79,0.77,1.21,1.5,1.65,2.27L159.06,65.56z"/>
			<path d="M160.06,62.85c0-1.56,1.21-2.8,2.85-2.8c1.59,0,2.77,1.24,2.77,2.8c0,1.8-1.12,2.94-2.85,2.94
				C161.27,65.79,160.06,64.67,160.06,62.85z"/>
			<path d="M181.49,65c-1.62,0.71-3.89,0.88-5.21,0.88c-5.12,0-8.54-2.53-8.54-8.51c0-6.03,3.5-8.8,9.1-8.8
				c1.53,0,2.88,0.21,4.3,0.56c0,0.77-0.21,2.77-0.35,3.38h-1.85c-2.18,0-4.24,0.03-4.59,0.35c-0.68,0.62-0.91,2.85-0.91,4.06
				c0,2.91,0.91,4.09,1.77,4.5c0.56,0.26,1.44,0.35,2.44,0.35c1.15,0,2.44-0.12,3.53-0.24L181.49,65z"/>
		</g>
		<g>
			<path d="M122.2,84.94v3.38h-2.46v-8.38h2.49l2.22,3.38c0.26,0.4,0.5,0.75,0.76,1.26h0.04v-1.41v-3.24h2.44v8.38h-2.5l-2.28-3.53
				l-0.66-1h-0.04C122.2,84.37,122.2,84.65,122.2,84.94z"/>
			<path d="M129.25,84.15c0-3.19,1.97-4.31,4.4-4.31c2.54,0,4.18,1.18,4.18,4.16c0,2.66-1.21,4.52-4.19,4.52
				C130.79,88.52,129.25,87.3,129.25,84.15z M134.71,86.15c0.21-0.4,0.31-1.02,0.31-1.97c0-0.88-0.09-1.51-0.31-1.94
				c-0.22-0.44-0.59-0.63-1.13-0.65c-0.35,0-0.93,0.09-1.06,0.25c-0.24,0.28-0.37,1.32-0.37,2.34c0,0.88,0.07,1.41,0.24,1.81
				c0.22,0.59,0.63,0.79,1.19,0.79C134.09,86.78,134.47,86.64,134.71,86.15z"/>
			<path d="M147.23,79.94v4.69c0,2.75-0.68,3.85-4.03,3.85c-2.19,0-3.88-0.51-3.88-3.27v-5.28h2.65v4.72c0,1.37,0.1,2.02,1.35,2.02
				c0.44,0,0.97-0.09,1.13-0.29c0.13-0.18,0.13-1.03,0.13-1.28v-5.16H147.23z"/>
			<path d="M156.65,88.33h-2.78l-0.5-2.12c-0.13-0.56-0.16-0.93-0.5-1.01c-0.41,0.01-0.81,0.01-1.21,0.01v3.12h-2.65v-8.31
				c0.99-0.07,2.29-0.13,3.32-0.13c2.65,0,3.96,0.56,4,2.41c0.03,1.22-0.46,1.99-1.74,2.12v0.09c0.71,0.06,1.18,0.5,1.32,1.06
				L156.65,88.33z M153.5,83.37c0.15-0.15,0.18-0.47,0.18-0.82c0-0.85-0.46-1.04-1.35-1.04c-0.19,0-0.41,0.01-0.66,0.03v2.02
				C152.15,83.58,153.29,83.58,153.5,83.37z"/>
			<path d="M168.35,88.33h-2.9l-1.63-3.13c-0.19-0.35-0.37-0.71-0.63-1.06v4.19h-2.65v-8.38h2.65v3.81c0.28-0.32,0.46-0.66,0.65-1
				l1.57-2.81h2.79l-1.68,2.81c-0.24,0.38-0.46,0.78-0.87,1.16c0.4,0.38,0.6,0.75,0.82,1.13L168.35,88.33z"/>
			<path d="M169.12,79.94h6.1v1.77h-3.46v1.53h2.91v1.59h-2.91v1.71h3.44v1.79h-6.09V79.94z"/>
			<path d="M183.3,88.05c-0.81,0.35-1.94,0.44-2.6,0.44c-2.56,0-4.27-1.27-4.27-4.25c0-3.02,1.75-4.4,4.54-4.4
				c0.76,0,1.44,0.1,2.15,0.28c0,0.38-0.1,1.38-0.18,1.69h-0.93c-1.09,0-2.12,0.01-2.29,0.18c-0.34,0.31-0.46,1.43-0.46,2.03
				c0,1.46,0.46,2.04,0.88,2.25c0.28,0.13,0.72,0.18,1.22,0.18c0.57,0,1.22-0.06,1.76-0.12L183.3,88.05z"/>
			<path d="M184.67,79.94h2.66v3.07h2.28v-3.07h2.66v8.38h-2.66v-3.62h-2.28v3.62h-2.66V79.94z"/>
			<path d="M203.31,88.05c-0.81,0.35-1.94,0.44-2.6,0.44c-2.56,0-4.27-1.27-4.27-4.25c0-3.02,1.75-4.4,4.54-4.4
				c0.76,0,1.44,0.1,2.15,0.28c0,0.38-0.1,1.38-0.18,1.69h-0.93c-1.09,0-2.12,0.01-2.29,0.18c-0.34,0.31-0.46,1.43-0.46,2.03
				c0,1.46,0.46,2.04,0.88,2.25c0.28,0.13,0.72,0.18,1.22,0.18c0.57,0,1.22-0.06,1.76-0.12L203.31,88.05z"/>
			<path d="M204.69,79.94h2.65v8.38h-2.65V79.94z"/>
			<path d="M213.6,88.33h-2.65v-6.55h-2.37v-1.84h7.38v1.84h-2.37V88.33z"/>
			<path d="M221.84,85.65v2.68h-2.65v-2.65l-2.82-5.74h2.69l1.12,2.72c0.07,0.18,0.24,0.6,0.32,0.87h0.03
				c0.09-0.28,0.25-0.72,0.32-0.9l1.1-2.69h2.68L221.84,85.65z"/>
			<path d="M230.39,88.49c-0.72,0-1.54-0.1-2.47-0.31c0.04-0.4,0.22-1.31,0.32-1.69c1.03,0.16,2.54,0.25,2.77,0.15
				c0.03-0.01,0.24-0.46-0.31-0.62c-0.96-0.28-2.66-0.59-2.66-2.5c0-0.6,0.34-1.52,0.65-1.72c0.22-0.15,1.31-0.37,2.1-0.37
				c0.94,0,1.84,0.09,2.46,0.18c0,0.34-0.13,1.46-0.21,1.68c-1.49-0.19-2.34-0.19-2.53-0.12c-0.07,0.03-0.18,0.37,0.04,0.54
				c0.44,0.35,3.03,0.44,3.03,2.32C233.59,87.86,232.32,88.49,230.39,88.49z"/>
			<path d="M234.8,86.97c0-0.78,0.6-1.4,1.43-1.4c0.79,0,1.38,0.62,1.38,1.4c0,0.9-0.56,1.47-1.43,1.47
				C235.4,88.44,234.8,87.89,234.8,86.97z"/>
			<path d="M243.21,88.33l-0.24-0.93c-0.46,0.74-1.09,1.1-1.88,1.1c-1.25,0-2.24-0.72-2.24-2.1c0-0.81,0.5-1.49,1.35-1.74
				c0.66-0.19,1.53-0.25,2.54-0.26c0-0.35,0-0.97-0.09-1.03c-0.12-0.09-0.74-0.06-1.16-0.03c-0.57,0.03-1.21,0.09-1.91,0.16
				c-0.09-0.59-0.15-1.24-0.18-1.71c0.97-0.21,2.21-0.38,3.16-0.38c2.49,0,2.71,1.38,2.69,3.01l-0.01,2.16l0.04,1.74H243.21z
				 M242.76,86.71v-1.09h-0.12c-0.5,0-1.12,0.03-1.21,0.12c-0.1,0.1-0.15,0.34-0.15,0.5c0,0.49,0.25,0.62,0.66,0.62
				C242.18,86.86,242.46,86.81,242.76,86.71z"/>
			<path d="M246.78,86.97c0-0.78,0.6-1.4,1.43-1.4c0.79,0,1.38,0.62,1.38,1.4c0,0.9-0.56,1.47-1.43,1.47
				C247.38,88.44,246.78,87.89,246.78,86.97z"/>
			<path d="M256.07,81.56c0,0.44-0.13,1.72-0.21,2.12c-0.53-0.03-1.47-0.01-2.19,0.09v4.56h-2.51v-6.77h2.1l0.29,1.09h0.01
				c0.56-0.72,1.25-1.24,1.78-1.24C255.62,81.41,255.94,81.49,256.07,81.56z"/>
			<path d="M257.11,86.97c0-0.78,0.6-1.4,1.43-1.4c0.79,0,1.38,0.62,1.38,1.4c0,0.9-0.56,1.47-1.43,1.47
				C257.71,88.44,257.11,87.89,257.11,86.97z"/>
			<path d="M261.54,79.5l2.51-0.1v8.93h-2.51V79.5z"/>
		</g>
	</g>
</g>
<g id="OBJECTS">
</g>
</svg>
